<?xml version="1.0" encoding="UTF-8" standalone="no"?>
<svg width="141px" height="24px" viewBox="0 0 141 24" version="1.1" xmlns="http://www.w3.org/2000/svg" xmlns:xlink="http://www.w3.org/1999/xlink" xmlns:sketch="http://www.bohemiancoding.com/sketch/ns">
    <!-- Generator: Sketch 3.4.4 (17249) - http://www.bohemiancoding.com/sketch -->
    <title>logo</title>
    <desc>Created with Sketch.</desc>
    <defs>
        <path id="path-1" d="M0,0.0184390244 L140.884663,0.0184390244 L140.884663,24 L0,24"></path>
        <path id="path-3" d="M0,0.0184390244 L140.884663,0.0184390244 L140.884663,24 L0,24"></path>
    </defs>
    <g id="Product" stroke="none" stroke-width="1" fill="none" fill-rule="evenodd" sketch:type="MSPage">
        <g id="Home" sketch:type="MSArtboardGroup" transform="translate(-425.000000, -16.000000)">
            <g id="Nav" sketch:type="MSLayerGroup" transform="translate(425.000000, 8.000000)">
                <g id="logo" transform="translate(0.000000, 8.000000)">
                    <path d="M54.1348556,9.24796098 C52.8396025,9.24796098 51.7638138,9.6504 50.9071946,10.4546927 C50.0505753,11.259278 49.6222657,12.2906927 49.6222657,13.5492293 C49.6222657,14.8165463 50.0579498,15.8596683 50.9299079,16.6774244 C51.8018661,17.4954732 52.875,17.9043512 54.1498996,17.9043512 C55.4655063,17.9043512 56.5566339,17.5022049 57.4232824,16.6976195 C58.289931,15.8933268 58.7238452,14.8393756 58.7238452,13.5354732 C58.7238452,12.2593756 58.289931,11.2256195 57.4232824,10.4344976 C56.5566339,9.64366829 55.4604916,9.24796098 54.1348556,9.24796098 L54.1348556,9.24796098 Z M58.5394833,6.22776585 L62.7296611,6.22776585 L62.7296611,20.8979122 L58.5394833,20.8979122 L58.5394833,19.347278 C57.7218013,20.0304 56.9014644,20.5224 56.0790628,20.8238634 C55.2560711,21.1247415 54.3646444,21.2754732 53.4038975,21.2754732 C51.2473054,21.2754732 49.3821527,20.5405463 47.8084393,19.0709854 C46.234431,17.6011317 45.4474268,15.7739122 45.4474268,13.5896195 C45.4474268,11.3245463 46.2090628,9.46835122 47.7317448,8.02103415 C49.2547218,6.57371707 51.1042406,5.85020488 53.2811862,5.85020488 C54.2826402,5.85020488 55.2227385,6.01644878 56.1017762,6.34893659 C56.9805188,6.68142439 57.7931862,7.18074146 58.5394833,7.84571707 L58.5394833,6.22776585 Z" id="Fill-1" fill="#FFFFFF" sketch:type="MSShapeGroup"></path>
                    <path d="M66.3370192,6.22767805 L70.5271971,6.22767805 L70.5271971,7.73119024 C71.4770297,7.0272878 72.3377787,6.53792195 73.1094439,6.2628 C73.8808142,5.98767805 74.6701782,5.85011707 75.477241,5.85011707 C77.1323686,5.85011707 78.537354,6.35792195 79.6921971,7.37353171 C80.6626782,8.23665366 81.1479188,9.51333659 81.1479188,11.2029951 L81.1479188,20.8978244 L77.0040527,20.8978244 L77.0040527,14.4734341 C77.0040527,12.7226049 76.9146741,11.560361 76.7359167,10.9855317 C76.5574544,10.4107024 76.2456615,9.97314146 75.801718,9.67197073 C75.3577745,9.37138537 74.8091134,9.22094634 74.1560297,9.22094634 C73.3085548,9.22094634 72.5817264,9.47001951 71.9743644,9.96845854 C71.3664126,10.4668976 70.9457724,11.1561659 70.710969,12.0359707 C70.5882577,12.4937268 70.5271971,13.485922 70.5271971,15.0122634 L70.5271971,20.8978244 L66.3370192,20.8978244 L66.3370192,6.22767805 Z" id="Fill-3" fill="#FFFFFF" sketch:type="MSShapeGroup"></path>
                    <path d="M92.4909264,9.24796098 C91.1956732,9.24796098 90.1201795,9.6504 89.2635603,10.4546927 C88.406646,11.259278 87.9786314,12.2906927 87.9786314,13.5492293 C87.9786314,14.8165463 88.4143155,15.8596683 89.2862736,16.6774244 C90.1582318,17.4954732 91.2313657,17.9043512 92.5062653,17.9043512 C93.821872,17.9043512 94.9129996,17.5022049 95.7793531,16.6976195 C96.6462967,15.8933268 97.0799159,14.8393756 97.0799159,13.5354732 C97.0799159,12.2593756 96.6462967,11.2256195 95.7793531,10.4344976 C94.9129996,9.64366829 93.8165623,9.24796098 92.4909264,9.24796098 L92.4909264,9.24796098 Z M96.895849,0.56435122 L101.085732,0.56435122 L101.085732,20.8979122 L96.895849,20.8979122 L96.895849,19.347278 C96.077872,20.0304 95.2578301,20.5224 94.4354285,20.8238634 C93.6124368,21.1247415 92.7207151,21.2754732 91.7602632,21.2754732 C89.6036711,21.2754732 87.7385184,20.5405463 86.16451,19.0709854 C84.5905017,17.6011317 83.8037925,15.7739122 83.8037925,13.5896195 C83.8037925,11.3245463 84.5651335,9.46835122 86.0878155,8.02103415 C87.6107925,6.57371707 89.4606063,5.85020488 91.6375519,5.85020488 C92.6390059,5.85020488 93.5791042,6.01644878 94.4578469,6.34893659 C95.3368845,6.68142439 96.1492569,7.18074146 96.895849,7.84571707 L96.895849,0.56435122 Z" id="Fill-5" fill="#FFFFFF" sketch:type="MSShapeGroup"></path>
                    <path d="M112.605107,9.31542439 C111.303365,9.31542439 110.219612,9.7128878 109.353553,10.5086927 C108.487199,11.3042049 108.054465,12.3221561 108.054465,13.562839 C108.054465,14.8392293 108.48189,15.8729854 109.338214,16.6638146 C110.193653,17.4552293 111.277701,17.8503512 112.589768,17.8503512 C113.901835,17.8503512 114.993258,17.4505463 115.864626,16.6503512 C116.735404,15.8504488 117.171088,14.8210829 117.171088,13.562839 C117.171088,12.3043024 116.743074,11.281961 115.887635,10.4949366 C115.031605,9.70879024 113.937528,9.31542439 112.605107,9.31542439 M112.536082,5.85005854 C114.111271,5.85005854 115.592655,6.19630244 116.979352,6.88820488 C118.365459,7.5804 119.447442,8.51961951 120.225302,9.70644878 C121.003162,10.8929854 121.391944,12.1740585 121.391944,13.5493756 C121.391944,14.9334732 121.000507,16.2280098 120.217927,17.4324 C119.434758,18.6373756 118.368409,19.5786439 117.017699,20.2573756 C115.66699,20.9358146 114.178231,21.2753268 112.551126,21.2753268 C110.157076,21.2753268 108.113166,20.5272293 106.419691,19.0301561 C104.726216,17.5336683 103.879921,15.715522 103.879921,13.5763024 C103.879921,11.2840098 104.836243,9.37396098 106.749478,7.84586341 C108.427909,6.51532683 110.356777,5.85005854 112.536082,5.85005854" id="Fill-7" fill="#FFFFFF" sketch:type="MSShapeGroup"></path>
                    <g id="Group-11">
                        <mask id="mask-2" sketch:name="Clip 10" fill="white">
                            <use xlink:href="#path-1"></use>
                        </mask>
                        <g id="Clip-10"></g>
                        <path d="M132.09762,9.31542439 C130.796172,9.31542439 129.712124,9.7128878 128.846065,10.5086927 C127.980007,11.3042049 127.546978,12.3221561 127.546978,13.562839 C127.546978,14.8392293 127.974697,15.8729854 128.831022,16.6638146 C129.686461,17.4552293 130.770214,17.8503512 132.082281,17.8503512 C133.394348,17.8503512 134.485771,17.4505463 135.357139,16.6503512 C136.227917,15.8504488 136.663896,14.8210829 136.663896,13.562839 C136.663896,12.3043024 136.235881,11.281961 135.380147,10.4949366 C134.524413,9.70879024 133.430335,9.31542439 132.09762,9.31542439 M132.028595,5.85005854 C133.604078,5.85005854 135.085463,6.19630244 136.47216,6.88820488 C137.858266,7.5804 138.94025,8.51961951 139.718109,9.70644878 C140.495674,10.8929854 140.884752,12.1740585 140.884752,13.5493756 C140.884752,14.9334732 140.493019,16.2280098 139.710735,17.4324 C138.927565,18.6373756 137.860921,19.5786439 136.510212,20.2573756 C135.159798,20.9358146 133.671038,21.2753268 132.043934,21.2753268 C129.649588,21.2753268 127.605678,20.5272293 125.912204,19.0301561 C124.219024,17.5336683 123.372434,15.715522 123.372434,13.5763024 C123.372434,11.2840098 124.329051,9.37396098 126.242285,7.84586341 C127.920421,6.51532683 129.849289,5.85005854 132.028595,5.85005854" id="Fill-9" fill="#FFFFFF" sketch:type="MSShapeGroup" mask="url(#mask-2)"></path>
                    </g>
                    <path d="M42.6383115,20.8978244 L38.4484287,20.8978244 L38.4484287,19.3943122 C37.4980061,20.0982146 36.6372571,20.5878732 35.8658868,20.8627024 C35.0948115,21.1378244 34.3051525,21.2753854 33.4980897,21.2753854 C31.8426672,21.2753854 30.4382718,20.7675805 29.2837236,19.7519707 C28.3129475,18.8888488 27.8274119,17.6124585 27.8274119,15.9225073 L27.8274119,6.22767805 L31.971573,6.22767805 L31.971573,12.6520683 C31.971573,14.4028976 32.0612467,15.5651415 32.239709,16.1399707 C32.4184663,16.7148 32.7293743,17.152361 33.1736128,17.453239 C33.6178513,17.7541171 34.1662174,17.9045561 34.819596,17.9045561 C35.6667759,17.9045561 36.3941944,17.6554829 37.0015563,17.1570439 C37.6086232,16.6586049 38.0298533,15.9693366 38.2646567,15.0895317 C38.387073,14.6317756 38.4484287,13.6395805 38.4484287,12.113239 L38.4484287,6.22767805 L42.6383115,6.22767805 L42.6383115,20.8978244 Z" id="Fill-12" fill="#FFFFFF" sketch:type="MSShapeGroup"></path>
                    <g id="Group-16">
                        <mask id="mask-4" sketch:name="Clip 15" fill="white">
                            <use xlink:href="#path-3"></use>
                        </mask>
                        <g id="Clip-15"></g>
                        <path d="M14.2393776,19.6759317 C13.5491266,19.9762244 12.8072542,20.1412976 12.033819,20.1412976 C8.368409,20.1412976 5.39678975,16.4728098 5.39678975,11.9473463 C5.39678975,7.42217561 8.368409,3.7536878 12.033819,3.7536878 C15.6992291,3.7536878 18.6705533,7.42217561 18.6705533,11.9473463 C18.6705533,13.2784683 18.4115617,14.5337854 17.9555241,15.6445171 C17.4410805,16.4391512 16.518386,17.0499805 14.8847918,16.2890049 C14.8847918,16.2890049 18.4738023,24.1914439 29.0930492,23.9965171 C29.0930492,23.9965171 21.2362814,21.9936878 22.4551349,18.1478341 C23.5388881,16.3519317 24.1657186,14.2533951 24.1657186,12.0073463 C24.1657186,5.38598049 18.7560973,0.0184682927 12.0827856,0.0184682927 C5.40976883,0.0184682927 -0.00014748954,5.38598049 -0.00014748954,12.0073463 C-0.00014748954,18.6287122 5.40976883,23.9965171 12.0827856,23.9965171 C14.0057542,23.9965171 15.8225303,23.5487122 17.4360659,22.7558341 L16.1484822,21.6348585 C15.3493839,20.8422732 14.7225533,20.1919317 14.2393776,19.6759317" id="Fill-14" fill="#F8B234" sketch:type="MSShapeGroup" mask="url(#mask-4)"></path>
                    </g>
                </g>
            </g>
        </g>
    </g>
</svg>